name C:/MyDriveSym/Projects/mobilecap/Data\Session20210903_0002\mocap\ForceDataProcessed\walkingTS3_forces.mot
datacolumns 19
datarows 9
range 0.70950000 0.71350000
endheader 
time	R_ground_force_vx	R_ground_force_vy	R_ground_force_vz	R_ground_force_px	R_ground_force_py	R_ground_force_pz	R_ground_torque_x	R_ground_torque_y	R_ground_torque_z	L_ground_force_vx	L_ground_force_vy	L_ground_force_vz	L_ground_force_px	L_ground_force_py	L_ground_force_pz	L_ground_torque_x	L_ground_torque_y	L_ground_torque_z	
          0.70950000	         15.23182200	         36.33946100	         -0.76083400	          0.35870800	          0.00600000	         -0.13727600	          0.00000000	         -0.03447100	          0.00000000	       -114.52817800	        640.89820400	         46.78496600	          0.87064100	          0.00600000	         -0.37744100	          0.00000000	          0.47958800	          0.00000000	
          0.71000000	         14.94757500	         35.44706800	         -0.70488600	          0.35954800	          0.00600000	         -0.13725300	          0.00000000	         -0.03238700	          0.00000000	       -114.33987900	        640.99974000	         46.88896600	          0.87076900	          0.00600000	         -0.37749500	          0.00000000	          0.48273300	          0.00000000	
          0.71050000	         14.66597200	         34.56461800	         -0.64976300	          0.36041900	          0.00600000	         -0.13722800	          0.00000000	         -0.03036400	          0.00000000	       -114.14722500	        641.08667600	         46.99111000	          0.87089800	          0.00600000	         -0.37754900	          0.00000000	          0.48588500	          0.00000000	
          0.71100000	         14.38701100	         33.69207400	         -0.59546200	          0.36132000	          0.00600000	         -0.13720200	          0.00000000	         -0.02840500	          0.00000000	       -113.95025900	        641.15913700	         47.09138800	          0.87102600	          0.00600000	         -0.37760300	          0.00000000	          0.48904400	          0.00000000	
          0.71150000	         14.11069000	         32.82939900	         -0.54197400	          0.36225500	          0.00600000	         -0.13717500	          0.00000000	         -0.02651000	          0.00000000	       -113.74902500	        641.21725000	         47.18979300	          0.87115500	          0.00600000	         -0.37765700	          0.00000000	          0.49220900	          0.00000000	
          0.71200000	         13.83700600	         31.97655400	         -0.48929500	          0.36322600	          0.00600000	         -0.13714500	          0.00000000	         -0.02468300	          0.00000000	       -113.54356700	        641.26113900	         47.28631900	          0.87128300	          0.00600000	         -0.37771200	          0.00000000	          0.49538100	          0.00000000	
          0.71250000	         13.56595400	         31.13349900	         -0.43741900	          0.36423300	          0.00600000	         -0.13711400	          0.00000000	         -0.02292500	          0.00000000	       -113.33392900	        641.29093000	         47.38095700	          0.87141200	          0.00600000	         -0.37776600	          0.00000000	          0.49856000	          0.00000000	
          0.71300000	         13.29753100	         30.30019500	         -0.38633900	          0.36528000	          0.00600000	         -0.13708100	          0.00000000	         -0.02123900	          0.00000000	       -113.12015600	        641.30674800	         47.47370100	          0.87154000	          0.00600000	         -0.37782100	          0.00000000	          0.50174600	          0.00000000	
          0.71350000	         13.03173300	         29.47659900	         -0.33604900	          0.36636900	          0.00600000	         -0.13704500	          0.00000000	         -0.01962800	          0.00000000	       -112.90229300	        641.30871900	         47.56454600	          0.87166900	          0.00600000	         -0.37787600	          0.00000000	          0.50493900	          0.00000000	
